<?xml version="1.0" encoding="UTF-8" standalone="no"?>
<!DOCTYPE svg PUBLIC "-//W3C//DTD SVG 1.1//EN"
 "http://www.w3.org/Graphics/SVG/1.1/DTD/svg11.dtd">
<!-- Generated by graphviz version 2.40.1 (20161225.0304)
 -->
<!-- Title: ModelOverview Pages: 1 -->
<svg width="450pt" height="914pt"
 viewBox="0.00 0.00 449.51 914.45" xmlns="http://www.w3.org/2000/svg" xmlns:xlink="http://www.w3.org/1999/xlink">
<g id="graph0" class="graph" transform="scale(1 1) rotate(0) translate(4 910.4526)">
<title>ModelOverview</title>
<polygon fill="#ffffff" stroke="transparent" points="-4,4 -4,-910.4526 445.5101,-910.4526 445.5101,4 -4,4"/>
<!-- original_source -->
<g id="node1" class="node">
<title>original_source</title>
<polygon fill="#3a913f" stroke="#3a913f" points="288.0868,-885.7595 152.0666,-885.7595 152.0666,-844.5557 288.0868,-844.5557 288.0868,-885.7595"/>
<text text-anchor="middle" x="220.0767" y="-869.3576" font-family="Times,serif" font-size="14.00" fill="#000000">Original Data Source</text>
<text text-anchor="middle" x="220.0767" y="-852.5576" font-family="Times,serif" font-size="14.00" fill="#000000">Harrison et al. (2022)</text>
</g>
<!-- download_script -->
<g id="node2" class="node">
<title>download_script</title>
<ellipse fill="#3a913f" stroke="#3a913f" cx="226.0767" cy="-768.8626" rx="76.9874" ry="18"/>
<text text-anchor="middle" x="226.0767" y="-764.6626" font-family="Times,serif" font-size="14.00" fill="#000000">Download Script</text>
</g>
<!-- original_source&#45;&gt;download_script -->
<g id="edge1" class="edge">
<title>original_source&#45;&gt;download_script</title>
<path fill="none" stroke="#000000" d="M221.3786,-844.263C222.2328,-830.5536 223.3609,-812.4487 224.2976,-797.4162"/>
<polygon fill="#000000" stroke="#000000" points="227.8104,-797.3184 224.9391,-787.12 220.8239,-796.883 227.8104,-797.3184"/>
</g>
<!-- raw_data -->
<g id="node3" class="node">
<title>raw_data</title>
<polygon fill="#3a913f" stroke="#3a913f" points="261.6621,-713.8626 190.4913,-713.8626 190.4913,-677.8626 261.6621,-677.8626 261.6621,-713.8626"/>
<text text-anchor="middle" x="226.0767" y="-691.6626" font-family="Times,serif" font-size="14.00" fill="#000000">Raw Data</text>
</g>
<!-- download_script&#45;&gt;raw_data -->
<g id="edge2" class="edge">
<title>download_script&#45;&gt;raw_data</title>
<path fill="none" stroke="#000000" d="M226.0767,-750.8176C226.0767,-742.7454 226.0767,-733.0389 226.0767,-724.0443"/>
<polygon fill="#000000" stroke="#000000" points="229.5768,-723.9529 226.0767,-713.9529 222.5768,-723.953 229.5768,-723.9529"/>
</g>
<!-- preprocessing -->
<g id="node4" class="node">
<title>preprocessing</title>
<ellipse fill="#3a913f" stroke="#3a913f" cx="228.0767" cy="-622.8626" rx="65.4072" ry="18"/>
<text text-anchor="middle" x="228.0767" y="-618.6626" font-family="Times,serif" font-size="14.00" fill="#000000">Preprocessing</text>
</g>
<!-- raw_data&#45;&gt;preprocessing -->
<g id="edge3" class="edge">
<title>raw_data&#45;&gt;preprocessing</title>
<path fill="none" stroke="#000000" d="M226.5711,-677.8176C226.7923,-669.7454 227.0582,-660.0389 227.3046,-651.0443"/>
<polygon fill="#000000" stroke="#000000" points="230.8058,-651.0451 227.5811,-640.9529 223.8084,-650.8533 230.8058,-651.0451"/>
</g>
<!-- processed_data -->
<g id="node5" class="node">
<title>processed_data</title>
<polygon fill="#3a913f" stroke="#3a913f" points="278.9794,-568.0639 177.1741,-568.0639 177.1741,-509.2612 278.9794,-509.2612 278.9794,-568.0639"/>
<text text-anchor="middle" x="228.0767" y="-551.2626" font-family="Times,serif" font-size="14.00" fill="#000000">Processed Data</text>
<text text-anchor="middle" x="228.0767" y="-534.4626" font-family="Times,serif" font-size="14.00" fill="#000000">in Format</text>
<text text-anchor="middle" x="228.0767" y="-517.6626" font-family="Times,serif" font-size="14.00" fill="#000000">for Model</text>
</g>
<!-- preprocessing&#45;&gt;processed_data -->
<g id="edge4" class="edge">
<title>preprocessing&#45;&gt;processed_data</title>
<path fill="none" stroke="#000000" d="M228.0767,-604.5924C228.0767,-596.8613 228.0767,-587.5315 228.0767,-578.3547"/>
<polygon fill="#000000" stroke="#000000" points="231.5768,-578.1523 228.0767,-568.1523 224.5768,-578.1523 231.5768,-578.1523"/>
</g>
<!-- model -->
<g id="node6" class="node">
<title>model</title>
<ellipse fill="#3a913f" stroke="#3a913f" cx="228.0767" cy="-443.0469" rx="72.1945" ry="29.3315"/>
<text text-anchor="middle" x="228.0767" y="-447.2469" font-family="Times,serif" font-size="14.00" fill="#000000">Seaweed</text>
<text text-anchor="middle" x="228.0767" y="-430.4469" font-family="Times,serif" font-size="14.00" fill="#000000"> Growth Model</text>
</g>
<!-- processed_data&#45;&gt;model -->
<g id="edge5" class="edge">
<title>processed_data&#45;&gt;model</title>
<path fill="none" stroke="#000000" d="M228.0767,-509.4552C228.0767,-501.0868 228.0767,-491.8176 228.0767,-482.925"/>
<polygon fill="#000000" stroke="#000000" points="231.5768,-482.7353 228.0767,-472.7353 224.5768,-482.7354 231.5768,-482.7353"/>
</g>
<!-- ocean_section -->
<g id="node7" class="node">
<title>ocean_section</title>
<ellipse fill="#3a913f" stroke="#3a913f" cx="67.0767" cy="-309.2313" rx="67.1535" ry="18"/>
<text text-anchor="middle" x="67.0767" y="-305.0313" font-family="Times,serif" font-size="14.00" fill="#000000">Ocean Section</text>
</g>
<!-- model&#45;&gt;ocean_section -->
<g id="edge6" class="edge">
<title>model&#45;&gt;ocean_section</title>
<path fill="none" stroke="#000000" d="M157.6438,-436.1083C104.9764,-429.2936 39.2786,-416.7737 22.4567,-395.6313 8.5102,-378.1026 12.7951,-365.4405 22.4567,-345.2313 24.5979,-340.7525 27.5984,-336.6525 31.0421,-332.9536"/>
<polygon fill="#000000" stroke="#000000" points="33.6562,-335.3023 38.6,-325.9316 28.8916,-330.1741 33.6562,-335.3023"/>
<text text-anchor="middle" x="67.3867" y="-383.0313" font-family="Times,serif" font-size="14.00" fill="#000000">builds an ocean</text>
<text text-anchor="middle" x="67.3867" y="-366.2313" font-family="Times,serif" font-size="14.00" fill="#000000">section for each</text>
<text text-anchor="middle" x="67.3867" y="-349.4313" font-family="Times,serif" font-size="14.00" fill="#000000">ocean grid cell</text>
</g>
<!-- postprocessing -->
<g id="node10" class="node">
<title>postprocessing</title>
<ellipse fill="#3a913f" stroke="#3a913f" cx="317.0767" cy="-309.2313" rx="68.939" ry="18"/>
<text text-anchor="middle" x="317.0767" y="-305.0313" font-family="Times,serif" font-size="14.00" fill="#000000">Postprocessing</text>
</g>
<!-- model&#45;&gt;postprocessing -->
<g id="edge15" class="edge">
<title>model&#45;&gt;postprocessing</title>
<path fill="none" stroke="#000000" d="M219.2159,-413.5589C214.813,-392.7053 212.9339,-365.0442 226.3859,-345.2313 232.6513,-336.0033 241.6932,-329.1407 251.6689,-324.0372"/>
<polygon fill="#000000" stroke="#000000" points="253.3523,-327.118 261.0399,-319.8275 250.4838,-320.7327 253.3523,-327.118"/>
<text text-anchor="middle" x="263.4221" y="-374.6313" font-family="Times,serif" font-size="14.00" fill="#000000">Returns</text>
<text text-anchor="middle" x="263.4221" y="-357.8313" font-family="Times,serif" font-size="14.00" fill="#000000">Growth Data</text>
</g>
<!-- ocean_section&#45;&gt;model -->
<g id="edge9" class="edge">
<title>ocean_section&#45;&gt;model</title>
<path fill="none" stroke="#000000" d="M90.9246,-326.0627C97.9132,-331.6717 105.238,-338.277 111.0767,-345.2313 127.5967,-364.9075 121.031,-377.6546 139.3859,-395.6313 147.6831,-403.7575 157.6561,-410.8619 167.8739,-416.9269"/>
<polygon fill="#000000" stroke="#000000" points="166.448,-420.1403 176.8803,-421.9887 169.8776,-414.0381 166.448,-420.1403"/>
<text text-anchor="middle" x="176.4221" y="-374.6313" font-family="Times,serif" font-size="14.00" fill="#000000">Returns</text>
<text text-anchor="middle" x="176.4221" y="-357.8313" font-family="Times,serif" font-size="14.00" fill="#000000">Growth Data</text>
</g>
<!-- seaweed_growth -->
<g id="node8" class="node">
<title>seaweed_growth</title>
<ellipse fill="#3a913f" stroke="#3a913f" cx="150.0767" cy="-175.4156" rx="79.4094" ry="29.3315"/>
<text text-anchor="middle" x="150.0767" y="-179.6156" font-family="Times,serif" font-size="14.00" fill="#000000">Seaweed Growth</text>
<text text-anchor="middle" x="150.0767" y="-162.8156" font-family="Times,serif" font-size="14.00" fill="#000000">Functions</text>
</g>
<!-- ocean_section&#45;&gt;seaweed_growth -->
<g id="edge7" class="edge">
<title>ocean_section&#45;&gt;seaweed_growth</title>
<path fill="none" stroke="#000000" d="M53.5143,-291.4634C50.0357,-285.9182 46.7718,-279.5831 44.9777,-273.2313 38.8892,-251.6746 32.8242,-241.6475 44.9777,-222.8313 52.2477,-211.5759 62.9013,-202.9647 74.6721,-196.3845"/>
<polygon fill="#000000" stroke="#000000" points="76.5112,-199.3765 83.8535,-191.7384 73.3506,-193.1307 76.5112,-199.3765"/>
<text text-anchor="middle" x="98.1262" y="-260.6313" font-family="Times,serif" font-size="14.00" fill="#000000">calculates seaweed</text>
<text text-anchor="middle" x="98.1262" y="-243.8313" font-family="Times,serif" font-size="14.00" fill="#000000"> growth for each</text>
<text text-anchor="middle" x="98.1262" y="-227.0313" font-family="Times,serif" font-size="14.00" fill="#000000">ocean grid cell</text>
</g>
<!-- seaweed_growth&#45;&gt;ocean_section -->
<g id="edge8" class="edge">
<title>seaweed_growth&#45;&gt;ocean_section</title>
<path fill="none" stroke="#000000" d="M158.481,-204.796C162.6165,-225.5974 164.2586,-253.2404 151.0767,-273.2313 145.4432,-281.7748 137.316,-288.2985 128.3095,-293.2778"/>
<polygon fill="#000000" stroke="#000000" points="126.5393,-290.2463 119.0696,-297.7599 129.5945,-296.5445 126.5393,-290.2463"/>
<text text-anchor="middle" x="198.4221" y="-252.2313" font-family="Times,serif" font-size="14.00" fill="#000000">Returns</text>
<text text-anchor="middle" x="198.4221" y="-235.4313" font-family="Times,serif" font-size="14.00" fill="#000000">Growth Data</text>
</g>
<!-- scenarios -->
<g id="node9" class="node">
<title>scenarios</title>
<ellipse fill="none" stroke="#ffffff" cx="369.0767" cy="-865.1576" rx="62.3774" ry="41.0911"/>
<text text-anchor="middle" x="369.0767" y="-877.7576" font-family="Times,serif" font-size="14.00" fill="#000000">Run for each</text>
<text text-anchor="middle" x="369.0767" y="-860.9576" font-family="Times,serif" font-size="14.00" fill="#000000">Nuclear War</text>
<text text-anchor="middle" x="369.0767" y="-844.1576" font-family="Times,serif" font-size="14.00" fill="#000000">Scenarios</text>
</g>
<!-- scenarios&#45;&gt;download_script -->
<g id="edge11" class="edge">
<title>scenarios&#45;&gt;download_script</title>
<path fill="none" stroke="#000000" d="M325.0052,-835.4802C304.0827,-821.3911 279.4669,-804.8151 260.0239,-791.7223"/>
<polygon fill="#000000" stroke="#000000" points="261.7361,-788.6558 251.4865,-785.9733 257.8262,-794.462 261.7361,-788.6558"/>
</g>
<!-- scenarios&#45;&gt;preprocessing -->
<g id="edge12" class="edge">
<title>scenarios&#45;&gt;preprocessing</title>
<path fill="none" stroke="#000000" d="M351.2922,-825.4143C333.2077,-786.5339 303.325,-726.2723 271.0767,-677.8626 264.4915,-667.9771 256.6466,-657.6002 249.4715,-648.5567"/>
<polygon fill="#000000" stroke="#000000" points="252.1246,-646.271 243.1259,-640.6788 246.6732,-650.6622 252.1246,-646.271"/>
</g>
<!-- scenarios&#45;&gt;postprocessing -->
<g id="edge10" class="edge">
<title>scenarios&#45;&gt;postprocessing</title>
<path fill="none" stroke="#000000" d="M369.0767,-823.447C369.0767,-806.508 369.0767,-786.7507 369.0767,-768.8626 369.0767,-768.8626 369.0767,-768.8626 369.0767,-443.0469 369.0767,-398.7608 370.0108,-384.7774 350.0767,-345.2313 348.2401,-341.5877 345.9278,-338.0418 343.3836,-334.6856"/>
<polygon fill="#000000" stroke="#000000" points="345.8433,-332.1733 336.7203,-326.7862 340.4926,-336.6867 345.8433,-332.1733"/>
</g>
<!-- plotting -->
<g id="node11" class="node">
<title>plotting</title>
<ellipse fill="#3a913f" stroke="#3a913f" cx="365.0767" cy="-91" rx="41.7501" ry="18"/>
<text text-anchor="middle" x="365.0767" y="-86.8" font-family="Times,serif" font-size="14.00" fill="#000000">Plotting</text>
</g>
<!-- scenarios&#45;&gt;plotting -->
<g id="edge13" class="edge">
<title>scenarios&#45;&gt;plotting</title>
<path fill="none" stroke="#000000" d="M399.0386,-828.5961C410.1399,-811.5069 420.0767,-790.2397 420.0767,-768.8626 420.0767,-768.8626 420.0767,-768.8626 420.0767,-175.4156 420.0767,-152.328 405.4557,-130.6072 391.2906,-114.9814"/>
<polygon fill="#000000" stroke="#000000" points="393.4545,-112.1814 384.0046,-107.3907 388.4044,-117.0288 393.4545,-112.1814"/>
</g>
<!-- postprocessing&#45;&gt;model -->
<g id="edge14" class="edge">
<title>postprocessing&#45;&gt;model</title>
<path fill="none" stroke="#000000" d="M318.2888,-327.3159C318.6482,-345.9487 316.6463,-375.092 303.0767,-395.6313 298.2551,-402.9294 291.8827,-409.3227 284.8846,-414.8535"/>
<polygon fill="#000000" stroke="#000000" points="282.4962,-412.261 276.4375,-420.9526 286.5939,-417.9363 282.4962,-412.261"/>
<text text-anchor="middle" x="331.4652" y="-366.2313" font-family="Times,serif" font-size="14.00" fill="#000000">Calls</text>
</g>
<!-- result_data -->
<g id="node12" class="node">
<title>result_data</title>
<polygon fill="#3a913f" stroke="#3a913f" points="371.7807,-193.4156 290.3728,-193.4156 290.3728,-157.4156 371.7807,-157.4156 371.7807,-193.4156"/>
<text text-anchor="middle" x="331.0767" y="-171.2156" font-family="Times,serif" font-size="14.00" fill="#000000">Result Data</text>
</g>
<!-- postprocessing&#45;&gt;result_data -->
<g id="edge16" class="edge">
<title>postprocessing&#45;&gt;result_data</title>
<path fill="none" stroke="#000000" d="M313.2649,-291.1834C310.1713,-273.5805 307.0105,-246.1295 311.6075,-222.8313 312.8963,-216.2998 315.0945,-209.5364 317.5605,-203.2344"/>
<polygon fill="#000000" stroke="#000000" points="320.8752,-204.3832 321.5641,-193.8108 314.4325,-201.6461 320.8752,-204.3832"/>
<text text-anchor="middle" x="359.3113" y="-252.2313" font-family="Times,serif" font-size="14.00" fill="#000000">Saves in Format</text>
<text text-anchor="middle" x="359.3113" y="-235.4313" font-family="Times,serif" font-size="14.00" fill="#000000">for Visualization</text>
</g>
<!-- results -->
<g id="node13" class="node">
<title>results</title>
<polygon fill="#3a913f" stroke="#3a913f" points="441.4436,-36 288.7099,-36 288.7099,0 441.4436,0 441.4436,-36"/>
<text text-anchor="middle" x="365.0767" y="-13.8" font-family="Times,serif" font-size="14.00" fill="#000000">Final Visualized Results</text>
</g>
<!-- plotting&#45;&gt;results -->
<g id="edge18" class="edge">
<title>plotting&#45;&gt;results</title>
<path fill="none" stroke="#000000" d="M365.0767,-72.9551C365.0767,-64.8828 365.0767,-55.1764 365.0767,-46.1817"/>
<polygon fill="#000000" stroke="#000000" points="368.5768,-46.0903 365.0767,-36.0904 361.5768,-46.0904 368.5768,-46.0903"/>
</g>
<!-- result_data&#45;&gt;plotting -->
<g id="edge17" class="edge">
<title>result_data&#45;&gt;plotting</title>
<path fill="none" stroke="#000000" d="M338.4542,-157.0987C342.985,-145.8496 348.8755,-131.2246 353.9634,-118.5923"/>
<polygon fill="#000000" stroke="#000000" points="357.3409,-119.5747 357.8304,-108.9912 350.8478,-116.9594 357.3409,-119.5747"/>
</g>
</g>
</svg>
