<?xml version="1.0" encoding="UTF-8" standalone="no"?>
<!DOCTYPE svg PUBLIC "-//W3C//DTD SVG 1.1//EN"
 "http://www.w3.org/Graphics/SVG/1.1/DTD/svg11.dtd">
<!-- Generated by graphviz version 2.40.1 (20161225.0304)
 -->
<!-- Title: ModelOverview Pages: 1 -->
<svg width="766pt" height="476pt"
 viewBox="0.00 0.00 766.49 476.00" xmlns="http://www.w3.org/2000/svg" xmlns:xlink="http://www.w3.org/1999/xlink">
<g id="graph0" class="graph" transform="scale(1 1) rotate(0) translate(4 472)">
<title>ModelOverview</title>
<polygon fill="#ffffff" stroke="transparent" points="-4,4 -4,-472 762.4896,-472 762.4896,4 -4,4"/>
<!-- salinity -->
<g id="node1" class="node">
<title>salinity</title>
<ellipse fill="#88cc88" stroke="#88cc88" cx="41.0831" cy="-378" rx="41.1664" ry="18"/>
<text text-anchor="middle" x="41.0831" y="-373.8" font-family="Times,serif" font-size="14.00" fill="#000000">Salinity</text>
</g>
<!-- env_data -->
<g id="node8" class="node">
<title>env_data</title>
<ellipse fill="#55aa55" stroke="#55aa55" cx="267.0831" cy="-306" rx="161.3965" ry="18"/>
<text text-anchor="middle" x="267.0831" y="-301.8" font-family="Times,serif" font-size="14.00" fill="#000000">Environmental Data in Nuclear Winter</text>
</g>
<!-- salinity&#45;&gt;env_data -->
<g id="edge7" class="edge">
<title>salinity&#45;&gt;env_data</title>
<path fill="none" stroke="#000000" d="M72.744,-366.344C78.8134,-364.1828 85.1312,-361.9832 91.0831,-360 126.6694,-348.1427 166.6164,-335.8083 199.4469,-325.9261"/>
<polygon fill="#000000" stroke="#000000" points="200.8223,-329.1676 209.3945,-322.9412 198.8104,-322.4629 200.8223,-329.1676"/>
</g>
<!-- temperature -->
<g id="node2" class="node">
<title>temperature</title>
<ellipse fill="#88cc88" stroke="#88cc88" cx="186.0831" cy="-378" rx="86.2331" ry="18"/>
<text text-anchor="middle" x="186.0831" y="-373.8" font-family="Times,serif" font-size="14.00" fill="#000000">Water Temperature</text>
</g>
<!-- temperature&#45;&gt;env_data -->
<g id="edge6" class="edge">
<title>temperature&#45;&gt;env_data</title>
<path fill="none" stroke="#000000" d="M206.1056,-360.2022C216.058,-351.3557 228.2492,-340.5191 239.108,-330.8668"/>
<polygon fill="#000000" stroke="#000000" points="241.5795,-333.3527 246.7284,-324.0931 236.929,-328.1208 241.5795,-333.3527"/>
</g>
<!-- illumination -->
<g id="node3" class="node">
<title>illumination</title>
<ellipse fill="#88cc88" stroke="#88cc88" cx="349.0831" cy="-378" rx="58.5655" ry="18"/>
<text text-anchor="middle" x="349.0831" y="-373.8" font-family="Times,serif" font-size="14.00" fill="#000000">Illumination</text>
</g>
<!-- illumination&#45;&gt;env_data -->
<g id="edge5" class="edge">
<title>illumination&#45;&gt;env_data</title>
<path fill="none" stroke="#000000" d="M329.6503,-360.937C319.3375,-351.8819 306.4799,-340.5923 295.1073,-330.6066"/>
<polygon fill="#000000" stroke="#000000" points="297.3445,-327.9133 287.5208,-323.9453 292.7259,-333.1734 297.3445,-327.9133"/>
</g>
<!-- nutrients -->
<g id="node4" class="node">
<title>nutrients</title>
<ellipse fill="#88cc88" stroke="#88cc88" cx="473.0831" cy="-378" rx="46.9458" ry="18"/>
<text text-anchor="middle" x="473.0831" y="-373.8" font-family="Times,serif" font-size="14.00" fill="#000000">Nutrients</text>
</g>
<!-- nutrients&#45;&gt;env_data -->
<g id="edge4" class="edge">
<title>nutrients&#45;&gt;env_data</title>
<path fill="none" stroke="#000000" d="M438.138,-365.7862C407.4742,-355.0687 362.2446,-339.2603 325.9952,-326.5906"/>
<polygon fill="#000000" stroke="#000000" points="327.104,-323.2706 316.5092,-323.2751 324.7944,-329.8786 327.104,-323.2706"/>
</g>
<!-- nitrate -->
<g id="node5" class="node">
<title>nitrate</title>
<ellipse fill="#ffffff" stroke="#ffffff" cx="359.0831" cy="-450" rx="37.6948" ry="18"/>
<text text-anchor="middle" x="359.0831" y="-445.8" font-family="Times,serif" font-size="14.00" fill="#000000">Nitrate</text>
</g>
<!-- nitrate&#45;&gt;nutrients -->
<g id="edge1" class="edge">
<title>nitrate&#45;&gt;nutrients</title>
<path fill="none" stroke="#000000" d="M381.8787,-435.6028C398.4823,-425.1163 421.2304,-410.7491 439.854,-398.9868"/>
<polygon fill="#000000" stroke="#000000" points="441.7653,-401.9193 448.3512,-393.6202 438.0273,-396.0009 441.7653,-401.9193"/>
</g>
<!-- ammonium -->
<g id="node6" class="node">
<title>ammonium</title>
<ellipse fill="#ffffff" stroke="#ffffff" cx="473.0831" cy="-450" rx="57.9275" ry="18"/>
<text text-anchor="middle" x="473.0831" y="-445.8" font-family="Times,serif" font-size="14.00" fill="#000000">Ammonium</text>
</g>
<!-- ammonium&#45;&gt;nutrients -->
<g id="edge2" class="edge">
<title>ammonium&#45;&gt;nutrients</title>
<path fill="none" stroke="#000000" d="M473.0831,-431.8314C473.0831,-424.131 473.0831,-414.9743 473.0831,-406.4166"/>
<polygon fill="#000000" stroke="#000000" points="476.5832,-406.4132 473.0831,-396.4133 469.5832,-406.4133 476.5832,-406.4132"/>
</g>
<!-- phosphate -->
<g id="node7" class="node">
<title>phosphate</title>
<ellipse fill="#ffffff" stroke="#ffffff" cx="599.0831" cy="-450" rx="50.9638" ry="18"/>
<text text-anchor="middle" x="599.0831" y="-445.8" font-family="Times,serif" font-size="14.00" fill="#000000">Phosphate</text>
</g>
<!-- phosphate&#45;&gt;nutrients -->
<g id="edge3" class="edge">
<title>phosphate&#45;&gt;nutrients</title>
<path fill="none" stroke="#000000" d="M572.053,-434.5542C553.4918,-423.9478 528.6661,-409.7617 508.5225,-398.2511"/>
<polygon fill="#000000" stroke="#000000" points="510.0551,-395.0957 499.6361,-393.1731 506.582,-401.1734 510.0551,-395.0957"/>
</g>
<!-- model_growth -->
<g id="node9" class="node">
<title>model_growth</title>
<polygon fill="#669999" stroke="#000000" points="343.1449,-252 191.0213,-252 191.0213,-216 343.1449,-216 343.1449,-252"/>
<text text-anchor="middle" x="267.0831" y="-229.8" font-family="Times,serif" font-size="14.00" fill="#000000">Seaweed Growth Model</text>
</g>
<!-- env_data&#45;&gt;model_growth -->
<g id="edge8" class="edge">
<title>env_data&#45;&gt;model_growth</title>
<path fill="none" stroke="#000000" d="M267.0831,-287.8314C267.0831,-280.131 267.0831,-270.9743 267.0831,-262.4166"/>
<polygon fill="#000000" stroke="#000000" points="270.5832,-262.4132 267.0831,-252.4133 263.5832,-262.4133 270.5832,-262.4132"/>
</g>
<!-- growth -->
<g id="node10" class="node">
<title>growth</title>
<polygon fill="#d49a6a" stroke="#d49a6a" points="376.5099,-154.5442 376.5099,-169.4558 312.4092,-180 221.7571,-180 157.6564,-169.4558 157.6564,-154.5442 221.7571,-144 312.4092,-144 376.5099,-154.5442"/>
<text text-anchor="middle" x="267.0831" y="-157.8" font-family="Times,serif" font-size="14.00" fill="#000000">Seaweed Growth Rates</text>
</g>
<!-- model_growth&#45;&gt;growth -->
<g id="edge9" class="edge">
<title>model_growth&#45;&gt;growth</title>
<path fill="none" stroke="#000000" d="M267.0831,-215.8314C267.0831,-208.131 267.0831,-198.9743 267.0831,-190.4166"/>
<polygon fill="#000000" stroke="#000000" points="270.5832,-190.4132 267.0831,-180.4133 263.5832,-190.4133 270.5832,-190.4132"/>
</g>
<!-- upscaling_model -->
<g id="node11" class="node">
<title>upscaling_model</title>
<polygon fill="#669999" stroke="#000000" points="438.3947,-108 325.7716,-108 325.7716,-72 438.3947,-72 438.3947,-108"/>
<text text-anchor="middle" x="382.0831" y="-85.8" font-family="Times,serif" font-size="14.00" fill="#000000">Upscaling Model</text>
</g>
<!-- growth&#45;&gt;upscaling_model -->
<g id="edge10" class="edge">
<title>growth&#45;&gt;upscaling_model</title>
<path fill="none" stroke="#000000" d="M296.1025,-143.8314C310.8117,-134.6221 328.8475,-123.3301 344.5953,-113.4706"/>
<polygon fill="#000000" stroke="#000000" points="346.4545,-116.436 353.0731,-108.1628 342.7399,-110.5029 346.4545,-116.436"/>
</g>
<!-- area_needed -->
<g id="node16" class="node">
<title>area_needed</title>
<polygon fill="#d49a6a" stroke="#d49a6a" points="380.7698,-10.5442 380.7698,-25.4558 323.5463,-36 242.62,-36 185.3964,-25.4558 185.3964,-10.5442 242.62,0 323.5463,0 380.7698,-10.5442"/>
<text text-anchor="middle" x="283.0831" y="-13.8" font-family="Times,serif" font-size="14.00" fill="#000000">Global Area Needed</text>
</g>
<!-- upscaling_model&#45;&gt;area_needed -->
<g id="edge15" class="edge">
<title>upscaling_model&#45;&gt;area_needed</title>
<path fill="none" stroke="#000000" d="M357.1012,-71.8314C344.7903,-62.8779 329.7724,-51.9558 316.4894,-42.2955"/>
<polygon fill="#000000" stroke="#000000" points="318.203,-39.214 308.057,-36.1628 314.0858,-44.8752 318.203,-39.214"/>
</g>
<!-- upscaling_speed -->
<g id="node17" class="node">
<title>upscaling_speed</title>
<polygon fill="#d49a6a" stroke="#d49a6a" points="563.5452,-10.5442 563.5452,-25.4558 515.24,-36 446.9262,-36 398.6211,-25.4558 398.6211,-10.5442 446.9262,0 515.24,0 563.5452,-10.5442"/>
<text text-anchor="middle" x="481.0831" y="-13.8" font-family="Times,serif" font-size="14.00" fill="#000000">Upscaling Speed</text>
</g>
<!-- upscaling_model&#45;&gt;upscaling_speed -->
<g id="edge16" class="edge">
<title>upscaling_model&#45;&gt;upscaling_speed</title>
<path fill="none" stroke="#000000" d="M407.065,-71.8314C419.376,-62.8779 434.3939,-51.9558 447.6768,-42.2955"/>
<polygon fill="#000000" stroke="#000000" points="450.0805,-44.8752 456.1092,-36.1628 445.9632,-39.214 450.0805,-44.8752"/>
</g>
<!-- food_demands -->
<g id="node12" class="node">
<title>food_demands</title>
<ellipse fill="#88cc88" stroke="#88cc88" cx="464.0831" cy="-234" rx="69.5485" ry="18"/>
<text text-anchor="middle" x="464.0831" y="-229.8" font-family="Times,serif" font-size="14.00" fill="#000000">Food Demands</text>
</g>
<!-- assumptions -->
<g id="node15" class="node">
<title>assumptions</title>
<ellipse fill="#55aa55" stroke="#55aa55" cx="497.0831" cy="-162" rx="103.0707" ry="18"/>
<text text-anchor="middle" x="497.0831" y="-157.8" font-family="Times,serif" font-size="14.00" fill="#000000">Upscaling Assumptions</text>
</g>
<!-- food_demands&#45;&gt;assumptions -->
<g id="edge11" class="edge">
<title>food_demands&#45;&gt;assumptions</title>
<path fill="none" stroke="#000000" d="M472.4104,-215.8314C476.0561,-207.8771 480.414,-198.369 484.4458,-189.5723"/>
<polygon fill="#000000" stroke="#000000" points="487.6588,-190.9622 488.6437,-180.4133 481.2954,-188.0456 487.6588,-190.9622"/>
</g>
<!-- farm_design -->
<g id="node13" class="node">
<title>farm_design</title>
<ellipse fill="#88cc88" stroke="#88cc88" cx="650.0831" cy="-234" rx="97.8324" ry="18"/>
<text text-anchor="middle" x="650.0831" y="-229.8" font-family="Times,serif" font-size="14.00" fill="#000000">Seaweed Farm Design</text>
</g>
<!-- farm_design&#45;&gt;assumptions -->
<g id="edge12" class="edge">
<title>farm_design&#45;&gt;assumptions</title>
<path fill="none" stroke="#000000" d="M614.2114,-217.1192C592.7082,-207 565.1716,-194.0417 542.2014,-183.2321"/>
<polygon fill="#000000" stroke="#000000" points="543.5334,-179.9908 532.9948,-178.8996 540.5527,-186.3245 543.5334,-179.9908"/>
</g>
<!-- comp_prod -->
<g id="node14" class="node">
<title>comp_prod</title>
<ellipse fill="#88cc88" stroke="#88cc88" cx="650.0831" cy="-306" rx="108.3131" ry="18"/>
<text text-anchor="middle" x="650.0831" y="-301.8" font-family="Times,serif" font-size="14.00" fill="#000000">Component Construction</text>
</g>
<!-- comp_prod&#45;&gt;farm_design -->
<g id="edge13" class="edge">
<title>comp_prod&#45;&gt;farm_design</title>
<path fill="none" stroke="#000000" d="M650.0831,-287.8314C650.0831,-280.131 650.0831,-270.9743 650.0831,-262.4166"/>
<polygon fill="#000000" stroke="#000000" points="653.5832,-262.4132 650.0831,-252.4133 646.5832,-262.4133 653.5832,-262.4132"/>
</g>
<!-- assumptions&#45;&gt;upscaling_model -->
<g id="edge14" class="edge">
<title>assumptions&#45;&gt;upscaling_model</title>
<path fill="none" stroke="#000000" d="M469.2448,-144.5708C454.3256,-135.2301 435.7377,-123.5924 419.5642,-113.4664"/>
<polygon fill="#000000" stroke="#000000" points="421.1992,-110.3607 410.866,-108.0206 417.4845,-116.2938 421.1992,-110.3607"/>
</g>
</g>
</svg>
