<?xml version="1.0" encoding="UTF-8" standalone="no"?>
<!DOCTYPE svg PUBLIC "-//W3C//DTD SVG 1.1//EN"
 "http://www.w3.org/Graphics/SVG/1.1/DTD/svg11.dtd">
<!-- Generated by graphviz version 2.40.1 (20161225.0304)
 -->
<!-- Title: ModelOverview Pages: 1 -->
<svg width="610pt" height="588pt"
 viewBox="0.00 0.00 609.81 588.22" xmlns="http://www.w3.org/2000/svg" xmlns:xlink="http://www.w3.org/1999/xlink">
<g id="graph0" class="graph" transform="scale(1 1) rotate(0) translate(4 584.2196)">
<title>ModelOverview</title>
<polygon fill="#ffffff" stroke="transparent" points="-4,4 -4,-584.2196 605.8145,-584.2196 605.8145,4 -4,4"/>
<!-- salinity -->
<g id="node1" class="node">
<title>salinity</title>
<ellipse fill="#88cc88" stroke="#88cc88" cx="41.0831" cy="-478.804" rx="41.1664" ry="18"/>
<text text-anchor="middle" x="41.0831" y="-474.604" font-family="Times,serif" font-size="14.00" fill="#000000">Salinity</text>
</g>
<!-- env_data -->
<g id="node8" class="node">
<title>env_data</title>
<ellipse fill="#55aa55" stroke="#55aa55" cx="231.0831" cy="-383.9727" rx="91.1195" ry="29.3315"/>
<text text-anchor="middle" x="231.0831" y="-388.1727" font-family="Times,serif" font-size="14.00" fill="#000000">Environmental Data</text>
<text text-anchor="middle" x="231.0831" y="-371.3727" font-family="Times,serif" font-size="14.00" fill="#000000">in Nuclear Winter</text>
</g>
<!-- salinity&#45;&gt;env_data -->
<g id="edge7" class="edge">
<title>salinity&#45;&gt;env_data</title>
<path fill="none" stroke="#000000" d="M64.9828,-464.1228C73.1658,-459.2631 82.438,-453.938 91.0831,-449.3883 115.8187,-436.3706 143.6097,-423.1136 167.8719,-411.9683"/>
<polygon fill="#000000" stroke="#000000" points="169.343,-415.1442 176.9841,-407.805 166.434,-408.7773 169.343,-415.1442"/>
</g>
<!-- temperature -->
<g id="node2" class="node">
<title>temperature</title>
<ellipse fill="#88cc88" stroke="#88cc88" cx="162.0831" cy="-478.804" rx="61.7629" ry="29.3315"/>
<text text-anchor="middle" x="162.0831" y="-483.004" font-family="Times,serif" font-size="14.00" fill="#000000">Water</text>
<text text-anchor="middle" x="162.0831" y="-466.204" font-family="Times,serif" font-size="14.00" fill="#000000">Temperature</text>
</g>
<!-- temperature&#45;&gt;env_data -->
<g id="edge6" class="edge">
<title>temperature&#45;&gt;env_data</title>
<path fill="none" stroke="#000000" d="M182.4122,-450.8644C189.2447,-441.4741 196.9746,-430.8503 204.2296,-420.8793"/>
<polygon fill="#000000" stroke="#000000" points="207.1285,-422.844 210.1819,-412.6987 201.4682,-418.7255 207.1285,-422.844"/>
</g>
<!-- illumination -->
<g id="node3" class="node">
<title>illumination</title>
<ellipse fill="#88cc88" stroke="#88cc88" cx="301.0831" cy="-478.804" rx="58.5655" ry="18"/>
<text text-anchor="middle" x="301.0831" y="-474.604" font-family="Times,serif" font-size="14.00" fill="#000000">Illumination</text>
</g>
<!-- illumination&#45;&gt;env_data -->
<g id="edge5" class="edge">
<title>illumination&#45;&gt;env_data</title>
<path fill="none" stroke="#000000" d="M287.9167,-460.9669C279.6518,-449.7702 268.6825,-434.9097 258.5864,-421.2322"/>
<polygon fill="#000000" stroke="#000000" points="261.1997,-418.8792 252.4449,-412.9122 255.5679,-423.0364 261.1997,-418.8792"/>
</g>
<!-- nutrients -->
<g id="node4" class="node">
<title>nutrients</title>
<ellipse fill="#88cc88" stroke="#88cc88" cx="425.0831" cy="-478.804" rx="46.9458" ry="18"/>
<text text-anchor="middle" x="425.0831" y="-474.604" font-family="Times,serif" font-size="14.00" fill="#000000">Nutrients</text>
</g>
<!-- nutrients&#45;&gt;env_data -->
<g id="edge4" class="edge">
<title>nutrients&#45;&gt;env_data</title>
<path fill="none" stroke="#000000" d="M397.5699,-464.0651C388.5349,-459.302 378.4168,-454.0495 369.0831,-449.3883 344.2684,-436.9961 316.6898,-423.8081 292.7499,-412.5441"/>
<polygon fill="#000000" stroke="#000000" points="293.9633,-409.2473 283.4237,-408.1665 290.9889,-415.5839 293.9633,-409.2473"/>
</g>
<!-- nitrate -->
<g id="node5" class="node">
<title>nitrate</title>
<ellipse fill="#ffffff" stroke="#ffffff" cx="311.0831" cy="-562.2196" rx="37.6948" ry="18"/>
<text text-anchor="middle" x="311.0831" y="-558.0196" font-family="Times,serif" font-size="14.00" fill="#000000">Nitrate</text>
</g>
<!-- nitrate&#45;&gt;nutrients -->
<g id="edge1" class="edge">
<title>nitrate&#45;&gt;nutrients</title>
<path fill="none" stroke="#000000" d="M331.7277,-547.1137C349.3566,-534.2143 374.9482,-515.4885 394.8802,-500.9039"/>
<polygon fill="#000000" stroke="#000000" points="397.0328,-503.6658 403.0363,-494.936 392.8992,-498.0166 397.0328,-503.6658"/>
</g>
<!-- ammonium -->
<g id="node6" class="node">
<title>ammonium</title>
<ellipse fill="#ffffff" stroke="#ffffff" cx="425.0831" cy="-562.2196" rx="57.9275" ry="18"/>
<text text-anchor="middle" x="425.0831" y="-558.0196" font-family="Times,serif" font-size="14.00" fill="#000000">Ammonium</text>
</g>
<!-- ammonium&#45;&gt;nutrients -->
<g id="edge2" class="edge">
<title>ammonium&#45;&gt;nutrients</title>
<path fill="none" stroke="#000000" d="M425.0831,-544.1197C425.0831,-533.298 425.0831,-519.3148 425.0831,-507.0647"/>
<polygon fill="#000000" stroke="#000000" points="428.5832,-506.8686 425.0831,-496.8686 421.5832,-506.8686 428.5832,-506.8686"/>
</g>
<!-- phosphate -->
<g id="node7" class="node">
<title>phosphate</title>
<ellipse fill="#ffffff" stroke="#ffffff" cx="551.0831" cy="-562.2196" rx="50.9638" ry="18"/>
<text text-anchor="middle" x="551.0831" y="-558.0196" font-family="Times,serif" font-size="14.00" fill="#000000">Phosphate</text>
</g>
<!-- phosphate&#45;&gt;nutrients -->
<g id="edge3" class="edge">
<title>phosphate&#45;&gt;nutrients</title>
<path fill="none" stroke="#000000" d="M527.0869,-546.3334C507.3817,-533.288 479.2833,-514.686 457.5649,-500.3079"/>
<polygon fill="#000000" stroke="#000000" points="459.2604,-497.2328 448.99,-494.631 455.3962,-503.0697 459.2604,-497.2328"/>
</g>
<!-- model_growth -->
<g id="node9" class="node">
<title>model_growth</title>
<polygon fill="#669999" stroke="#000000" points="280.3975,-318.359 181.7688,-318.359 181.7688,-277.1551 280.3975,-277.1551 280.3975,-318.359"/>
<text text-anchor="middle" x="231.0831" y="-301.957" font-family="Times,serif" font-size="14.00" fill="#000000">Seaweed</text>
<text text-anchor="middle" x="231.0831" y="-285.157" font-family="Times,serif" font-size="14.00" fill="#000000">Growth Model</text>
</g>
<!-- env_data&#45;&gt;model_growth -->
<g id="edge8" class="edge">
<title>env_data&#45;&gt;model_growth</title>
<path fill="none" stroke="#000000" d="M231.0831,-354.3022C231.0831,-346.014 231.0831,-336.9895 231.0831,-328.6334"/>
<polygon fill="#000000" stroke="#000000" points="234.5832,-328.5124 231.0831,-318.5124 227.5832,-328.5124 234.5832,-328.5124"/>
</g>
<!-- growth -->
<g id="node10" class="node">
<title>growth</title>
<polygon fill="#d49a6a" stroke="#d49a6a" points="302.5007,-195.9958 302.5007,-222.2398 260.6653,-240.7971 201.501,-240.7971 159.6655,-222.2398 159.6655,-195.9958 201.501,-177.4385 260.6653,-177.4385 302.5007,-195.9958"/>
<text text-anchor="middle" x="231.0831" y="-213.3178" font-family="Times,serif" font-size="14.00" fill="#000000">Seaweed</text>
<text text-anchor="middle" x="231.0831" y="-196.5178" font-family="Times,serif" font-size="14.00" fill="#000000">Growth Rates</text>
</g>
<!-- model_growth&#45;&gt;growth -->
<g id="edge9" class="edge">
<title>model_growth&#45;&gt;growth</title>
<path fill="none" stroke="#000000" d="M231.0831,-276.7508C231.0831,-269.0971 231.0831,-260.1467 231.0831,-251.3094"/>
<polygon fill="#000000" stroke="#000000" points="234.5832,-251.0716 231.0831,-241.0716 227.5832,-251.0717 234.5832,-251.0716"/>
</g>
<!-- upscaling_model -->
<g id="node11" class="node">
<title>upscaling_model</title>
<polygon fill="#669999" stroke="#000000" points="403.1674,-141.0804 334.9989,-141.0804 334.9989,-99.8766 403.1674,-99.8766 403.1674,-141.0804"/>
<text text-anchor="middle" x="369.0831" y="-124.6785" font-family="Times,serif" font-size="14.00" fill="#000000">Scale&#45;Up</text>
<text text-anchor="middle" x="369.0831" y="-107.8785" font-family="Times,serif" font-size="14.00" fill="#000000">Model</text>
</g>
<!-- growth&#45;&gt;upscaling_model -->
<g id="edge10" class="edge">
<title>growth&#45;&gt;upscaling_model</title>
<path fill="none" stroke="#000000" d="M272.4877,-182.5231C290.0656,-171.2326 310.5042,-158.1046 328.0423,-146.8396"/>
<polygon fill="#000000" stroke="#000000" points="330.3964,-149.4874 336.9187,-141.1381 326.6133,-143.5977 330.3964,-149.4874"/>
</g>
<!-- area_needed -->
<g id="node14" class="node">
<title>area_needed</title>
<polygon fill="#d49a6a" stroke="#d49a6a" points="364.8877,-18.7173 364.8877,-44.9613 326.926,-63.5186 273.2402,-63.5186 235.2786,-44.9613 235.2786,-18.7173 273.2402,-.1599 326.926,-.1599 364.8877,-18.7173"/>
<text text-anchor="middle" x="300.0831" y="-36.0393" font-family="Times,serif" font-size="14.00" fill="#000000">Global Area</text>
<text text-anchor="middle" x="300.0831" y="-19.2393" font-family="Times,serif" font-size="14.00" fill="#000000">Needed</text>
</g>
<!-- upscaling_model&#45;&gt;area_needed -->
<g id="edge13" class="edge">
<title>upscaling_model&#45;&gt;area_needed</title>
<path fill="none" stroke="#000000" d="M352.7311,-99.4723C346.2551,-91.1531 338.5866,-81.3018 331.1348,-71.729"/>
<polygon fill="#000000" stroke="#000000" points="333.8617,-69.5342 324.9571,-63.7931 328.338,-73.8341 333.8617,-69.5342"/>
</g>
<!-- upscaling_speed -->
<g id="node15" class="node">
<title>upscaling_speed</title>
<polygon fill="#d49a6a" stroke="#d49a6a" points="494.9624,-18.7173 494.9624,-44.9613 462.2291,-63.5186 415.9372,-63.5186 383.2038,-44.9613 383.2038,-18.7173 415.9372,-.1599 462.2291,-.1599 494.9624,-18.7173"/>
<text text-anchor="middle" x="439.0831" y="-36.0393" font-family="Times,serif" font-size="14.00" fill="#000000">Upscaling</text>
<text text-anchor="middle" x="439.0831" y="-19.2393" font-family="Times,serif" font-size="14.00" fill="#000000">Speed</text>
</g>
<!-- upscaling_model&#45;&gt;upscaling_speed -->
<g id="edge14" class="edge">
<title>upscaling_model&#45;&gt;upscaling_speed</title>
<path fill="none" stroke="#000000" d="M385.6721,-99.4723C392.3683,-90.9931 400.3213,-80.9224 408.0174,-71.1771"/>
<polygon fill="#000000" stroke="#000000" points="410.9375,-73.1267 414.3884,-63.1096 405.4439,-68.7884 410.9375,-73.1267"/>
</g>
<!-- food_demands -->
<g id="node12" class="node">
<title>food_demands</title>
<ellipse fill="#55aa55" stroke="#55aa55" cx="369.0831" cy="-209.1178" rx="48.8991" ry="29.3315"/>
<text text-anchor="middle" x="369.0831" y="-213.3178" font-family="Times,serif" font-size="14.00" fill="#000000">Food</text>
<text text-anchor="middle" x="369.0831" y="-196.5178" font-family="Times,serif" font-size="14.00" fill="#000000">Demands</text>
</g>
<!-- food_demands&#45;&gt;upscaling_model -->
<g id="edge11" class="edge">
<title>food_demands&#45;&gt;upscaling_model</title>
<path fill="none" stroke="#000000" d="M369.0831,-179.6022C369.0831,-170.5528 369.0831,-160.5731 369.0831,-151.4307"/>
<polygon fill="#000000" stroke="#000000" points="372.5832,-151.1888 369.0831,-141.1888 365.5832,-151.1888 372.5832,-151.1888"/>
</g>
<!-- assumptions -->
<g id="node13" class="node">
<title>assumptions</title>
<ellipse fill="#55aa55" stroke="#55aa55" cx="499.0831" cy="-209.1178" rx="63.0237" ry="29.3315"/>
<text text-anchor="middle" x="499.0831" y="-213.3178" font-family="Times,serif" font-size="14.00" fill="#000000">Upscaling</text>
<text text-anchor="middle" x="499.0831" y="-196.5178" font-family="Times,serif" font-size="14.00" fill="#000000">Assumptions</text>
</g>
<!-- assumptions&#45;&gt;upscaling_model -->
<g id="edge12" class="edge">
<title>assumptions&#45;&gt;upscaling_model</title>
<path fill="none" stroke="#000000" d="M463.2159,-184.6621C446.036,-172.9481 425.4326,-158.8999 407.8873,-146.9368"/>
<polygon fill="#000000" stroke="#000000" points="409.7822,-143.9926 399.5482,-141.2509 405.8387,-149.7762 409.7822,-143.9926"/>
</g>
</g>
</svg>
