<?xml version="1.0" encoding="UTF-8" standalone="no"?>
<!DOCTYPE svg PUBLIC "-//W3C//DTD SVG 1.1//EN"
 "http://www.w3.org/Graphics/SVG/1.1/DTD/svg11.dtd">
<!-- Generated by graphviz version 2.40.1 (20161225.0304)
 -->
<!-- Title: ModelOverview Pages: 1 -->
<svg width="893pt" height="476pt"
 viewBox="0.00 0.00 893.30 476.00" xmlns="http://www.w3.org/2000/svg" xmlns:xlink="http://www.w3.org/1999/xlink">
<g id="graph0" class="graph" transform="scale(1 1) rotate(0) translate(4 472)">
<title>ModelOverview</title>
<polygon fill="#ffffff" stroke="transparent" points="-4,4 -4,-472 889.2972,-472 889.2972,4 -4,4"/>
<!-- salinity -->
<g id="node1" class="node">
<title>salinity</title>
<ellipse fill="#88cc88" stroke="#88cc88" cx="41.0831" cy="-378" rx="41.1664" ry="18"/>
<text text-anchor="middle" x="41.0831" y="-373.8" font-family="Times,serif" font-size="14.00" fill="#000000">Salinity</text>
</g>
<!-- env_data -->
<g id="node8" class="node">
<title>env_data</title>
<ellipse fill="#55aa55" stroke="#55aa55" cx="267.0831" cy="-306" rx="161.3965" ry="18"/>
<text text-anchor="middle" x="267.0831" y="-301.8" font-family="Times,serif" font-size="14.00" fill="#000000">Environmental Data in Nuclear Winter</text>
</g>
<!-- salinity&#45;&gt;env_data -->
<g id="edge7" class="edge">
<title>salinity&#45;&gt;env_data</title>
<path fill="none" stroke="#000000" d="M72.744,-366.344C78.8134,-364.1828 85.1312,-361.9832 91.0831,-360 126.6694,-348.1427 166.6164,-335.8083 199.4469,-325.9261"/>
<polygon fill="#000000" stroke="#000000" points="200.8223,-329.1676 209.3945,-322.9412 198.8104,-322.4629 200.8223,-329.1676"/>
</g>
<!-- temperature -->
<g id="node2" class="node">
<title>temperature</title>
<ellipse fill="#88cc88" stroke="#88cc88" cx="186.0831" cy="-378" rx="86.2331" ry="18"/>
<text text-anchor="middle" x="186.0831" y="-373.8" font-family="Times,serif" font-size="14.00" fill="#000000">Water Temperature</text>
</g>
<!-- temperature&#45;&gt;env_data -->
<g id="edge6" class="edge">
<title>temperature&#45;&gt;env_data</title>
<path fill="none" stroke="#000000" d="M206.1056,-360.2022C216.058,-351.3557 228.2492,-340.5191 239.108,-330.8668"/>
<polygon fill="#000000" stroke="#000000" points="241.5795,-333.3527 246.7284,-324.0931 236.929,-328.1208 241.5795,-333.3527"/>
</g>
<!-- illumination -->
<g id="node3" class="node">
<title>illumination</title>
<ellipse fill="#88cc88" stroke="#88cc88" cx="349.0831" cy="-378" rx="58.5655" ry="18"/>
<text text-anchor="middle" x="349.0831" y="-373.8" font-family="Times,serif" font-size="14.00" fill="#000000">Illumination</text>
</g>
<!-- illumination&#45;&gt;env_data -->
<g id="edge5" class="edge">
<title>illumination&#45;&gt;env_data</title>
<path fill="none" stroke="#000000" d="M329.6503,-360.937C319.3375,-351.8819 306.4799,-340.5923 295.1073,-330.6066"/>
<polygon fill="#000000" stroke="#000000" points="297.3445,-327.9133 287.5208,-323.9453 292.7259,-333.1734 297.3445,-327.9133"/>
</g>
<!-- nutrients -->
<g id="node4" class="node">
<title>nutrients</title>
<ellipse fill="#88cc88" stroke="#88cc88" cx="473.0831" cy="-378" rx="46.9458" ry="18"/>
<text text-anchor="middle" x="473.0831" y="-373.8" font-family="Times,serif" font-size="14.00" fill="#000000">Nutrients</text>
</g>
<!-- nutrients&#45;&gt;env_data -->
<g id="edge4" class="edge">
<title>nutrients&#45;&gt;env_data</title>
<path fill="none" stroke="#000000" d="M438.138,-365.7862C407.4742,-355.0687 362.2446,-339.2603 325.9952,-326.5906"/>
<polygon fill="#000000" stroke="#000000" points="327.104,-323.2706 316.5092,-323.2751 324.7944,-329.8786 327.104,-323.2706"/>
</g>
<!-- nitrate -->
<g id="node5" class="node">
<title>nitrate</title>
<ellipse fill="#ffffff" stroke="#ffffff" cx="359.0831" cy="-450" rx="37.6948" ry="18"/>
<text text-anchor="middle" x="359.0831" y="-445.8" font-family="Times,serif" font-size="14.00" fill="#000000">Nitrate</text>
</g>
<!-- nitrate&#45;&gt;nutrients -->
<g id="edge1" class="edge">
<title>nitrate&#45;&gt;nutrients</title>
<path fill="none" stroke="#000000" d="M381.8787,-435.6028C398.4823,-425.1163 421.2304,-410.7491 439.854,-398.9868"/>
<polygon fill="#000000" stroke="#000000" points="441.7653,-401.9193 448.3512,-393.6202 438.0273,-396.0009 441.7653,-401.9193"/>
</g>
<!-- ammonium -->
<g id="node6" class="node">
<title>ammonium</title>
<ellipse fill="#ffffff" stroke="#ffffff" cx="473.0831" cy="-450" rx="57.9275" ry="18"/>
<text text-anchor="middle" x="473.0831" y="-445.8" font-family="Times,serif" font-size="14.00" fill="#000000">Ammonium</text>
</g>
<!-- ammonium&#45;&gt;nutrients -->
<g id="edge2" class="edge">
<title>ammonium&#45;&gt;nutrients</title>
<path fill="none" stroke="#000000" d="M473.0831,-431.8314C473.0831,-424.131 473.0831,-414.9743 473.0831,-406.4166"/>
<polygon fill="#000000" stroke="#000000" points="476.5832,-406.4132 473.0831,-396.4133 469.5832,-406.4133 476.5832,-406.4132"/>
</g>
<!-- phosphate -->
<g id="node7" class="node">
<title>phosphate</title>
<ellipse fill="#ffffff" stroke="#ffffff" cx="599.0831" cy="-450" rx="50.9638" ry="18"/>
<text text-anchor="middle" x="599.0831" y="-445.8" font-family="Times,serif" font-size="14.00" fill="#000000">Phosphate</text>
</g>
<!-- phosphate&#45;&gt;nutrients -->
<g id="edge3" class="edge">
<title>phosphate&#45;&gt;nutrients</title>
<path fill="none" stroke="#000000" d="M572.053,-434.5542C553.4918,-423.9478 528.6661,-409.7617 508.5225,-398.2511"/>
<polygon fill="#000000" stroke="#000000" points="510.0551,-395.0957 499.6361,-393.1731 506.582,-401.1734 510.0551,-395.0957"/>
</g>
<!-- model_growth -->
<g id="node9" class="node">
<title>model_growth</title>
<polygon fill="#669999" stroke="#000000" points="343.1449,-252 191.0213,-252 191.0213,-216 343.1449,-216 343.1449,-252"/>
<text text-anchor="middle" x="267.0831" y="-229.8" font-family="Times,serif" font-size="14.00" fill="#000000">Seaweed Growth Model</text>
</g>
<!-- env_data&#45;&gt;model_growth -->
<g id="edge8" class="edge">
<title>env_data&#45;&gt;model_growth</title>
<path fill="none" stroke="#000000" d="M267.0831,-287.8314C267.0831,-280.131 267.0831,-270.9743 267.0831,-262.4166"/>
<polygon fill="#000000" stroke="#000000" points="270.5832,-262.4132 267.0831,-252.4133 263.5832,-262.4133 270.5832,-262.4132"/>
</g>
<!-- growth -->
<g id="node10" class="node">
<title>growth</title>
<polygon fill="#d49a6a" stroke="#d49a6a" points="436.5099,-154.5442 436.5099,-169.4558 372.4092,-180 281.7571,-180 217.6564,-169.4558 217.6564,-154.5442 281.7571,-144 372.4092,-144 436.5099,-154.5442"/>
<text text-anchor="middle" x="327.0831" y="-157.8" font-family="Times,serif" font-size="14.00" fill="#000000">Seaweed Growth Rates</text>
</g>
<!-- model_growth&#45;&gt;growth -->
<g id="edge9" class="edge">
<title>model_growth&#45;&gt;growth</title>
<path fill="none" stroke="#000000" d="M282.2237,-215.8314C289.2048,-207.454 297.6222,-197.3531 305.2707,-188.1749"/>
<polygon fill="#000000" stroke="#000000" points="308.0256,-190.3362 311.7387,-180.4133 302.6481,-185.8548 308.0256,-190.3362"/>
</g>
<!-- upscaling_model -->
<g id="node11" class="node">
<title>upscaling_model</title>
<polygon fill="#669999" stroke="#000000" points="498.3947,-108 385.7716,-108 385.7716,-72 498.3947,-72 498.3947,-108"/>
<text text-anchor="middle" x="442.0831" y="-85.8" font-family="Times,serif" font-size="14.00" fill="#000000">Upscaling Model</text>
</g>
<!-- growth&#45;&gt;upscaling_model -->
<g id="edge10" class="edge">
<title>growth&#45;&gt;upscaling_model</title>
<path fill="none" stroke="#000000" d="M356.1025,-143.8314C370.8117,-134.6221 388.8475,-123.3301 404.5953,-113.4706"/>
<polygon fill="#000000" stroke="#000000" points="406.4545,-116.436 413.0731,-108.1628 402.7399,-110.5029 406.4545,-116.436"/>
</g>
<!-- area_needed -->
<g id="node16" class="node">
<title>area_needed</title>
<polygon fill="#d49a6a" stroke="#d49a6a" points="440.7698,-10.5442 440.7698,-25.4558 383.5463,-36 302.62,-36 245.3964,-25.4558 245.3964,-10.5442 302.62,0 383.5463,0 440.7698,-10.5442"/>
<text text-anchor="middle" x="343.0831" y="-13.8" font-family="Times,serif" font-size="14.00" fill="#000000">Global Area Needed</text>
</g>
<!-- upscaling_model&#45;&gt;area_needed -->
<g id="edge15" class="edge">
<title>upscaling_model&#45;&gt;area_needed</title>
<path fill="none" stroke="#000000" d="M417.1012,-71.8314C404.7903,-62.8779 389.7724,-51.9558 376.4894,-42.2955"/>
<polygon fill="#000000" stroke="#000000" points="378.203,-39.214 368.057,-36.1628 374.0858,-44.8752 378.203,-39.214"/>
</g>
<!-- upscaling_speed -->
<g id="node17" class="node">
<title>upscaling_speed</title>
<polygon fill="#d49a6a" stroke="#d49a6a" points="623.5452,-10.5442 623.5452,-25.4558 575.24,-36 506.9262,-36 458.6211,-25.4558 458.6211,-10.5442 506.9262,0 575.24,0 623.5452,-10.5442"/>
<text text-anchor="middle" x="541.0831" y="-13.8" font-family="Times,serif" font-size="14.00" fill="#000000">Upscaling Speed</text>
</g>
<!-- upscaling_model&#45;&gt;upscaling_speed -->
<g id="edge16" class="edge">
<title>upscaling_model&#45;&gt;upscaling_speed</title>
<path fill="none" stroke="#000000" d="M467.065,-71.8314C479.376,-62.8779 494.3939,-51.9558 507.6768,-42.2955"/>
<polygon fill="#000000" stroke="#000000" points="510.0805,-44.8752 516.1092,-36.1628 505.9632,-39.214 510.0805,-44.8752"/>
</g>
<!-- food_demands -->
<g id="node12" class="node">
<title>food_demands</title>
<ellipse fill="#88cc88" stroke="#88cc88" cx="431.0831" cy="-234" rx="69.5485" ry="18"/>
<text text-anchor="middle" x="431.0831" y="-229.8" font-family="Times,serif" font-size="14.00" fill="#000000">Food Demands</text>
</g>
<!-- assumptions -->
<g id="node15" class="node">
<title>assumptions</title>
<ellipse fill="#55aa55" stroke="#55aa55" cx="587.0831" cy="-162" rx="103.0707" ry="18"/>
<text text-anchor="middle" x="587.0831" y="-157.8" font-family="Times,serif" font-size="14.00" fill="#000000">Upscaling Assumptions</text>
</g>
<!-- food_demands&#45;&gt;assumptions -->
<g id="edge11" class="edge">
<title>food_demands&#45;&gt;assumptions</title>
<path fill="none" stroke="#000000" d="M465.318,-218.1993C487.5674,-207.9304 516.8412,-194.4194 541.1095,-183.2186"/>
<polygon fill="#000000" stroke="#000000" points="542.8682,-186.2617 550.4811,-178.8932 539.9348,-179.906 542.8682,-186.2617"/>
</g>
<!-- farm_design -->
<g id="node13" class="node">
<title>farm_design</title>
<ellipse fill="#88cc88" stroke="#88cc88" cx="617.0831" cy="-234" rx="97.8324" ry="18"/>
<text text-anchor="middle" x="617.0831" y="-229.8" font-family="Times,serif" font-size="14.00" fill="#000000">Seaweed Farm Design</text>
</g>
<!-- farm_design&#45;&gt;assumptions -->
<g id="edge12" class="edge">
<title>farm_design&#45;&gt;assumptions</title>
<path fill="none" stroke="#000000" d="M609.5129,-215.8314C606.2338,-207.9617 602.3211,-198.5712 598.6887,-189.8533"/>
<polygon fill="#000000" stroke="#000000" points="601.8323,-188.2979 594.7553,-180.4133 595.3708,-190.9902 601.8323,-188.2979"/>
</g>
<!-- rope_production -->
<g id="node14" class="node">
<title>rope_production</title>
<ellipse fill="#88cc88" stroke="#88cc88" cx="809.0831" cy="-234" rx="76.4289" ry="18"/>
<text text-anchor="middle" x="809.0831" y="-229.8" font-family="Times,serif" font-size="14.00" fill="#000000">Rope Production</text>
</g>
<!-- rope_production&#45;&gt;assumptions -->
<g id="edge13" class="edge">
<title>rope_production&#45;&gt;assumptions</title>
<path fill="none" stroke="#000000" d="M764.1581,-219.4297C730.081,-208.3777 682.9406,-193.0889 645.8658,-181.0647"/>
<polygon fill="#000000" stroke="#000000" points="646.7763,-177.6805 636.1843,-177.9247 644.6167,-184.3391 646.7763,-177.6805"/>
</g>
<!-- assumptions&#45;&gt;upscaling_model -->
<g id="edge14" class="edge">
<title>assumptions&#45;&gt;upscaling_model</title>
<path fill="none" stroke="#000000" d="M552.7201,-144.937C533.2421,-135.2651 508.63,-123.0439 487.5675,-112.5854"/>
<polygon fill="#000000" stroke="#000000" points="488.9915,-109.3847 478.4783,-108.0721 485.8783,-115.6544 488.9915,-109.3847"/>
</g>
</g>
</svg>
