<?xml version="1.0" encoding="UTF-8" standalone="no"?>
<!DOCTYPE svg PUBLIC "-//W3C//DTD SVG 1.1//EN"
 "http://www.w3.org/Graphics/SVG/1.1/DTD/svg11.dtd">
<!-- Generated by graphviz version 2.40.1 (20161225.0304)
 -->
<!-- Title: ModelOverview Pages: 1 -->
<svg width="610pt" height="605pt"
 viewBox="0.00 0.00 609.81 605.45" xmlns="http://www.w3.org/2000/svg" xmlns:xlink="http://www.w3.org/1999/xlink">
<g id="graph0" class="graph" transform="scale(1 1) rotate(0) translate(4 601.4509)">
<title>ModelOverview</title>
<polygon fill="#ffffff" stroke="transparent" points="-4,4 -4,-601.4509 605.8145,-601.4509 605.8145,4 -4,4"/>
<!-- salinity -->
<g id="node1" class="node">
<title>salinity</title>
<ellipse fill="#88cc88" stroke="#88cc88" cx="41.0831" cy="-496.0353" rx="41.1664" ry="18"/>
<text text-anchor="middle" x="41.0831" y="-491.8353" font-family="Times,serif" font-size="14.00" fill="#000000">Salinity</text>
</g>
<!-- env_data -->
<g id="node8" class="node">
<title>env_data</title>
<ellipse fill="#55aa55" stroke="#55aa55" cx="231.0831" cy="-401.204" rx="91.1195" ry="29.3315"/>
<text text-anchor="middle" x="231.0831" y="-405.404" font-family="Times,serif" font-size="14.00" fill="#000000">Environmental Data</text>
<text text-anchor="middle" x="231.0831" y="-388.604" font-family="Times,serif" font-size="14.00" fill="#000000">in Nuclear Winter</text>
</g>
<!-- salinity&#45;&gt;env_data -->
<g id="edge7" class="edge">
<title>salinity&#45;&gt;env_data</title>
<path fill="none" stroke="#000000" d="M64.9828,-481.3541C73.1658,-476.4944 82.438,-471.1693 91.0831,-466.6196 115.8187,-453.6019 143.6097,-440.3449 167.8719,-429.1995"/>
<polygon fill="#000000" stroke="#000000" points="169.343,-432.3755 176.9841,-425.0363 166.434,-426.0085 169.343,-432.3755"/>
</g>
<!-- temperature -->
<g id="node2" class="node">
<title>temperature</title>
<ellipse fill="#88cc88" stroke="#88cc88" cx="162.0831" cy="-496.0353" rx="61.7629" ry="29.3315"/>
<text text-anchor="middle" x="162.0831" y="-500.2353" font-family="Times,serif" font-size="14.00" fill="#000000">Water</text>
<text text-anchor="middle" x="162.0831" y="-483.4353" font-family="Times,serif" font-size="14.00" fill="#000000">Temperature</text>
</g>
<!-- temperature&#45;&gt;env_data -->
<g id="edge6" class="edge">
<title>temperature&#45;&gt;env_data</title>
<path fill="none" stroke="#000000" d="M182.4122,-468.0957C189.2447,-458.7053 196.9746,-448.0815 204.2296,-438.1106"/>
<polygon fill="#000000" stroke="#000000" points="207.1285,-440.0753 210.1819,-429.9299 201.4682,-435.9568 207.1285,-440.0753"/>
</g>
<!-- illumination -->
<g id="node3" class="node">
<title>illumination</title>
<ellipse fill="#88cc88" stroke="#88cc88" cx="301.0831" cy="-496.0353" rx="58.5655" ry="18"/>
<text text-anchor="middle" x="301.0831" y="-491.8353" font-family="Times,serif" font-size="14.00" fill="#000000">Illumination</text>
</g>
<!-- illumination&#45;&gt;env_data -->
<g id="edge5" class="edge">
<title>illumination&#45;&gt;env_data</title>
<path fill="none" stroke="#000000" d="M287.9167,-478.1982C279.6518,-467.0015 268.6825,-452.141 258.5864,-438.4635"/>
<polygon fill="#000000" stroke="#000000" points="261.1997,-436.1105 252.4449,-430.1435 255.5679,-440.2677 261.1997,-436.1105"/>
</g>
<!-- nutrients -->
<g id="node4" class="node">
<title>nutrients</title>
<ellipse fill="#88cc88" stroke="#88cc88" cx="425.0831" cy="-496.0353" rx="46.9458" ry="18"/>
<text text-anchor="middle" x="425.0831" y="-491.8353" font-family="Times,serif" font-size="14.00" fill="#000000">Nutrients</text>
</g>
<!-- nutrients&#45;&gt;env_data -->
<g id="edge4" class="edge">
<title>nutrients&#45;&gt;env_data</title>
<path fill="none" stroke="#000000" d="M397.5699,-481.2964C388.5349,-476.5333 378.4168,-471.2807 369.0831,-466.6196 344.2684,-454.2274 316.6898,-441.0394 292.7499,-429.7754"/>
<polygon fill="#000000" stroke="#000000" points="293.9633,-426.4785 283.4237,-425.3978 290.9889,-432.8152 293.9633,-426.4785"/>
</g>
<!-- nitrate -->
<g id="node5" class="node">
<title>nitrate</title>
<ellipse fill="#ffffff" stroke="#ffffff" cx="311.0831" cy="-579.4509" rx="37.6948" ry="18"/>
<text text-anchor="middle" x="311.0831" y="-575.2509" font-family="Times,serif" font-size="14.00" fill="#000000">Nitrate</text>
</g>
<!-- nitrate&#45;&gt;nutrients -->
<g id="edge1" class="edge">
<title>nitrate&#45;&gt;nutrients</title>
<path fill="none" stroke="#000000" d="M331.7277,-564.345C349.3566,-551.4456 374.9482,-532.7198 394.8802,-518.1352"/>
<polygon fill="#000000" stroke="#000000" points="397.0328,-520.8971 403.0363,-512.1673 392.8992,-515.2479 397.0328,-520.8971"/>
</g>
<!-- ammonium -->
<g id="node6" class="node">
<title>ammonium</title>
<ellipse fill="#ffffff" stroke="#ffffff" cx="425.0831" cy="-579.4509" rx="57.9275" ry="18"/>
<text text-anchor="middle" x="425.0831" y="-575.2509" font-family="Times,serif" font-size="14.00" fill="#000000">Ammonium</text>
</g>
<!-- ammonium&#45;&gt;nutrients -->
<g id="edge2" class="edge">
<title>ammonium&#45;&gt;nutrients</title>
<path fill="none" stroke="#000000" d="M425.0831,-561.3509C425.0831,-550.5293 425.0831,-536.5461 425.0831,-524.296"/>
<polygon fill="#000000" stroke="#000000" points="428.5832,-524.0999 425.0831,-514.0999 421.5832,-524.0999 428.5832,-524.0999"/>
</g>
<!-- phosphate -->
<g id="node7" class="node">
<title>phosphate</title>
<ellipse fill="#ffffff" stroke="#ffffff" cx="551.0831" cy="-579.4509" rx="50.9638" ry="18"/>
<text text-anchor="middle" x="551.0831" y="-575.2509" font-family="Times,serif" font-size="14.00" fill="#000000">Phosphate</text>
</g>
<!-- phosphate&#45;&gt;nutrients -->
<g id="edge3" class="edge">
<title>phosphate&#45;&gt;nutrients</title>
<path fill="none" stroke="#000000" d="M527.0869,-563.5647C507.3817,-550.5193 479.2833,-531.9173 457.5649,-517.5392"/>
<polygon fill="#000000" stroke="#000000" points="459.2604,-514.4641 448.99,-511.8623 455.3962,-520.301 459.2604,-514.4641"/>
</g>
<!-- model_growth -->
<g id="node9" class="node">
<title>model_growth</title>
<polygon fill="#669999" stroke="#000000" points="280.3975,-326.9746 181.7688,-326.9746 181.7688,-285.7708 280.3975,-285.7708 280.3975,-326.9746"/>
<text text-anchor="middle" x="231.0831" y="-310.5727" font-family="Times,serif" font-size="14.00" fill="#000000">Seaweed</text>
<text text-anchor="middle" x="231.0831" y="-293.7727" font-family="Times,serif" font-size="14.00" fill="#000000">Growth Model</text>
</g>
<!-- env_data&#45;&gt;model_growth -->
<g id="edge8" class="edge">
<title>env_data&#45;&gt;model_growth</title>
<path fill="none" stroke="#000000" d="M231.0831,-371.7186C231.0831,-360.7586 231.0831,-348.2997 231.0831,-337.221"/>
<polygon fill="#000000" stroke="#000000" points="234.5832,-337.116 231.0831,-327.116 227.5832,-337.1161 234.5832,-337.116"/>
</g>
<!-- growth -->
<g id="node10" class="node">
<title>growth</title>
<polygon fill="#d49a6a" stroke="#d49a6a" points="302.5007,-195.9958 302.5007,-222.2398 260.6653,-240.7971 201.501,-240.7971 159.6655,-222.2398 159.6655,-195.9958 201.501,-177.4385 260.6653,-177.4385 302.5007,-195.9958"/>
<text text-anchor="middle" x="231.0831" y="-213.3178" font-family="Times,serif" font-size="14.00" fill="#000000">Seaweed</text>
<text text-anchor="middle" x="231.0831" y="-196.5178" font-family="Times,serif" font-size="14.00" fill="#000000">Growth Rates</text>
</g>
<!-- model_growth&#45;&gt;growth -->
<g id="edge9" class="edge">
<title>model_growth&#45;&gt;growth</title>
<path fill="none" stroke="#000000" d="M231.0831,-285.7474C231.0831,-275.656 231.0831,-263.1239 231.0831,-251.1376"/>
<polygon fill="#000000" stroke="#000000" points="234.5832,-250.8197 231.0831,-240.8197 227.5832,-250.8197 234.5832,-250.8197"/>
</g>
<!-- upscaling_model -->
<g id="node11" class="node">
<title>upscaling_model</title>
<polygon fill="#669999" stroke="#000000" points="343.3451,-141.0804 270.8211,-141.0804 270.8211,-99.8766 343.3451,-99.8766 343.3451,-141.0804"/>
<text text-anchor="middle" x="307.0831" y="-124.6785" font-family="Times,serif" font-size="14.00" fill="#000000">Upscaling</text>
<text text-anchor="middle" x="307.0831" y="-107.8785" font-family="Times,serif" font-size="14.00" fill="#000000">Model</text>
</g>
<!-- growth&#45;&gt;upscaling_model -->
<g id="edge10" class="edge">
<title>growth&#45;&gt;upscaling_model</title>
<path fill="none" stroke="#000000" d="M258.5209,-177.117C266.4791,-167.8353 275.1086,-157.7706 282.8552,-148.7357"/>
<polygon fill="#000000" stroke="#000000" points="285.5443,-150.9765 289.3963,-141.1067 280.2302,-146.4201 285.5443,-150.9765"/>
</g>
<!-- area_needed -->
<g id="node16" class="node">
<title>area_needed</title>
<polygon fill="#d49a6a" stroke="#d49a6a" points="302.8877,-18.7173 302.8877,-44.9613 264.926,-63.5186 211.2402,-63.5186 173.2786,-44.9613 173.2786,-18.7173 211.2402,-.1599 264.926,-.1599 302.8877,-18.7173"/>
<text text-anchor="middle" x="238.0831" y="-36.0393" font-family="Times,serif" font-size="14.00" fill="#000000">Global Area</text>
<text text-anchor="middle" x="238.0831" y="-19.2393" font-family="Times,serif" font-size="14.00" fill="#000000">Needed</text>
</g>
<!-- upscaling_model&#45;&gt;area_needed -->
<g id="edge15" class="edge">
<title>upscaling_model&#45;&gt;area_needed</title>
<path fill="none" stroke="#000000" d="M290.7311,-99.4723C284.2551,-91.1531 276.5866,-81.3018 269.1348,-71.729"/>
<polygon fill="#000000" stroke="#000000" points="271.8617,-69.5342 262.9571,-63.7931 266.338,-73.8341 271.8617,-69.5342"/>
</g>
<!-- upscaling_speed -->
<g id="node17" class="node">
<title>upscaling_speed</title>
<polygon fill="#d49a6a" stroke="#d49a6a" points="432.9624,-18.7173 432.9624,-44.9613 400.2291,-63.5186 353.9372,-63.5186 321.2038,-44.9613 321.2038,-18.7173 353.9372,-.1599 400.2291,-.1599 432.9624,-18.7173"/>
<text text-anchor="middle" x="377.0831" y="-36.0393" font-family="Times,serif" font-size="14.00" fill="#000000">Upscaling</text>
<text text-anchor="middle" x="377.0831" y="-19.2393" font-family="Times,serif" font-size="14.00" fill="#000000">Speed</text>
</g>
<!-- upscaling_model&#45;&gt;upscaling_speed -->
<g id="edge16" class="edge">
<title>upscaling_model&#45;&gt;upscaling_speed</title>
<path fill="none" stroke="#000000" d="M323.6721,-99.4723C330.3683,-90.9931 338.3213,-80.9224 346.0174,-71.1771"/>
<polygon fill="#000000" stroke="#000000" points="348.9375,-73.1267 352.3884,-63.1096 343.4439,-68.7884 348.9375,-73.1267"/>
</g>
<!-- food_demands -->
<g id="node12" class="node">
<title>food_demands</title>
<ellipse fill="#88cc88" stroke="#88cc88" cx="365.0831" cy="-306.3727" rx="48.8991" ry="29.3315"/>
<text text-anchor="middle" x="365.0831" y="-310.5727" font-family="Times,serif" font-size="14.00" fill="#000000">Food</text>
<text text-anchor="middle" x="365.0831" y="-293.7727" font-family="Times,serif" font-size="14.00" fill="#000000">Demands</text>
</g>
<!-- assumptions -->
<g id="node15" class="node">
<title>assumptions</title>
<ellipse fill="#55aa55" stroke="#55aa55" cx="383.0831" cy="-209.1178" rx="63.0237" ry="29.3315"/>
<text text-anchor="middle" x="383.0831" y="-213.3178" font-family="Times,serif" font-size="14.00" fill="#000000">Upscaling</text>
<text text-anchor="middle" x="383.0831" y="-196.5178" font-family="Times,serif" font-size="14.00" fill="#000000">Assumptions</text>
</g>
<!-- food_demands&#45;&gt;assumptions -->
<g id="edge11" class="edge">
<title>food_demands&#45;&gt;assumptions</title>
<path fill="none" stroke="#000000" d="M370.5326,-276.9291C372.1891,-267.9786 374.0368,-257.9955 375.7941,-248.5007"/>
<polygon fill="#000000" stroke="#000000" points="379.2738,-248.9313 377.6522,-238.4613 372.3907,-247.6573 379.2738,-248.9313"/>
</g>
<!-- farm_design -->
<g id="node13" class="node">
<title>farm_design</title>
<ellipse fill="#88cc88" stroke="#88cc88" cx="494.0831" cy="-306.3727" rx="62.9483" ry="29.3315"/>
<text text-anchor="middle" x="494.0831" y="-310.5727" font-family="Times,serif" font-size="14.00" fill="#000000">Seaweed</text>
<text text-anchor="middle" x="494.0831" y="-293.7727" font-family="Times,serif" font-size="14.00" fill="#000000">Farm Design</text>
</g>
<!-- farm_design&#45;&gt;assumptions -->
<g id="edge12" class="edge">
<title>farm_design&#45;&gt;assumptions</title>
<path fill="none" stroke="#000000" d="M464.3372,-280.3102C450.8996,-268.5365 434.8739,-254.4953 420.62,-242.0065"/>
<polygon fill="#000000" stroke="#000000" points="422.7391,-239.2098 412.9112,-235.2523 418.1261,-244.4748 422.7391,-239.2098"/>
</g>
<!-- comp_prod -->
<g id="node14" class="node">
<title>comp_prod</title>
<ellipse fill="#88cc88" stroke="#88cc88" cx="494.0831" cy="-401.204" rx="62.415" ry="29.3315"/>
<text text-anchor="middle" x="494.0831" y="-405.404" font-family="Times,serif" font-size="14.00" fill="#000000">Component</text>
<text text-anchor="middle" x="494.0831" y="-388.604" font-family="Times,serif" font-size="14.00" fill="#000000">Construction</text>
</g>
<!-- comp_prod&#45;&gt;farm_design -->
<g id="edge13" class="edge">
<title>comp_prod&#45;&gt;farm_design</title>
<path fill="none" stroke="#000000" d="M494.0831,-371.7186C494.0831,-363.6012 494.0831,-354.6615 494.0831,-346.0694"/>
<polygon fill="#000000" stroke="#000000" points="497.5832,-345.8398 494.0831,-335.8398 490.5832,-345.8399 497.5832,-345.8398"/>
</g>
<!-- assumptions&#45;&gt;upscaling_model -->
<g id="edge14" class="edge">
<title>assumptions&#45;&gt;upscaling_model</title>
<path fill="none" stroke="#000000" d="M359.4529,-181.5577C350.5637,-171.1902 340.4443,-159.3879 331.4861,-148.9399"/>
<polygon fill="#000000" stroke="#000000" points="334.0679,-146.5739 324.9017,-141.2605 328.7538,-151.1303 334.0679,-146.5739"/>
</g>
</g>
</svg>
