<?xml version="1.0" encoding="UTF-8" standalone="no"?>
<!DOCTYPE svg PUBLIC "-//W3C//DTD SVG 1.1//EN"
 "http://www.w3.org/Graphics/SVG/1.1/DTD/svg11.dtd">
<!-- Generated by graphviz version 2.40.1 (20161225.0304)
 -->
<!-- Title: ModelOverview Pages: 1 -->
<svg width="610pt" height="597pt"
 viewBox="0.00 0.00 609.81 596.73" xmlns="http://www.w3.org/2000/svg" xmlns:xlink="http://www.w3.org/1999/xlink">
<g id="graph0" class="graph" transform="scale(1 1) rotate(0) translate(4 592.7276)">
<title>ModelOverview</title>
<polygon fill="#ffffff" stroke="transparent" points="-4,4 -4,-592.7276 605.8145,-592.7276 605.8145,4 -4,4"/>
<!-- salinity -->
<g id="node1" class="node">
<title>salinity</title>
<ellipse fill="#88cc88" stroke="#88cc88" cx="41.0831" cy="-487.312" rx="41.1664" ry="18"/>
<text text-anchor="middle" x="41.0831" y="-483.112" font-family="Times,serif" font-size="14.00" fill="#000000">Salinity</text>
</g>
<!-- env_data -->
<g id="node8" class="node">
<title>env_data</title>
<ellipse fill="#55aa55" stroke="#55aa55" cx="231.0831" cy="-392.4807" rx="91.1195" ry="29.3315"/>
<text text-anchor="middle" x="231.0831" y="-396.6807" font-family="Times,serif" font-size="14.00" fill="#000000">Environmental Data</text>
<text text-anchor="middle" x="231.0831" y="-379.8807" font-family="Times,serif" font-size="14.00" fill="#000000">in Nuclear Winter</text>
</g>
<!-- salinity&#45;&gt;env_data -->
<g id="edge7" class="edge">
<title>salinity&#45;&gt;env_data</title>
<path fill="none" stroke="#000000" d="M64.9828,-472.6308C73.1658,-467.7711 82.438,-462.446 91.0831,-457.8963 115.8187,-444.8786 143.6097,-431.6216 167.8719,-420.4762"/>
<polygon fill="#000000" stroke="#000000" points="169.343,-423.6522 176.9841,-416.313 166.434,-417.2852 169.343,-423.6522"/>
</g>
<!-- temperature -->
<g id="node2" class="node">
<title>temperature</title>
<ellipse fill="#88cc88" stroke="#88cc88" cx="162.0831" cy="-487.312" rx="61.7629" ry="29.3315"/>
<text text-anchor="middle" x="162.0831" y="-491.512" font-family="Times,serif" font-size="14.00" fill="#000000">Water</text>
<text text-anchor="middle" x="162.0831" y="-474.712" font-family="Times,serif" font-size="14.00" fill="#000000">Temperature</text>
</g>
<!-- temperature&#45;&gt;env_data -->
<g id="edge6" class="edge">
<title>temperature&#45;&gt;env_data</title>
<path fill="none" stroke="#000000" d="M182.4122,-459.3724C189.2447,-449.982 196.9746,-439.3582 204.2296,-429.3873"/>
<polygon fill="#000000" stroke="#000000" points="207.1285,-431.352 210.1819,-421.2066 201.4682,-427.2335 207.1285,-431.352"/>
</g>
<!-- illumination -->
<g id="node3" class="node">
<title>illumination</title>
<ellipse fill="#88cc88" stroke="#88cc88" cx="301.0831" cy="-487.312" rx="58.5655" ry="18"/>
<text text-anchor="middle" x="301.0831" y="-483.112" font-family="Times,serif" font-size="14.00" fill="#000000">Illumination</text>
</g>
<!-- illumination&#45;&gt;env_data -->
<g id="edge5" class="edge">
<title>illumination&#45;&gt;env_data</title>
<path fill="none" stroke="#000000" d="M287.9167,-469.4749C279.6518,-458.2782 268.6825,-443.4177 258.5864,-429.7402"/>
<polygon fill="#000000" stroke="#000000" points="261.1997,-427.3872 252.4449,-421.4202 255.5679,-431.5444 261.1997,-427.3872"/>
</g>
<!-- nutrients -->
<g id="node4" class="node">
<title>nutrients</title>
<ellipse fill="#88cc88" stroke="#88cc88" cx="425.0831" cy="-487.312" rx="46.9458" ry="18"/>
<text text-anchor="middle" x="425.0831" y="-483.112" font-family="Times,serif" font-size="14.00" fill="#000000">Nutrients</text>
</g>
<!-- nutrients&#45;&gt;env_data -->
<g id="edge4" class="edge">
<title>nutrients&#45;&gt;env_data</title>
<path fill="none" stroke="#000000" d="M397.5699,-472.5731C388.5349,-467.81 378.4168,-462.5574 369.0831,-457.8963 344.2684,-445.5041 316.6898,-432.3161 292.7499,-421.0521"/>
<polygon fill="#000000" stroke="#000000" points="293.9633,-417.7552 283.4237,-416.6745 290.9889,-424.0919 293.9633,-417.7552"/>
</g>
<!-- nitrate -->
<g id="node5" class="node">
<title>nitrate</title>
<ellipse fill="#ffffff" stroke="#ffffff" cx="311.0831" cy="-570.7276" rx="37.6948" ry="18"/>
<text text-anchor="middle" x="311.0831" y="-566.5276" font-family="Times,serif" font-size="14.00" fill="#000000">Nitrate</text>
</g>
<!-- nitrate&#45;&gt;nutrients -->
<g id="edge1" class="edge">
<title>nitrate&#45;&gt;nutrients</title>
<path fill="none" stroke="#000000" d="M331.7277,-555.6217C349.3566,-542.7223 374.9482,-523.9965 394.8802,-509.4119"/>
<polygon fill="#000000" stroke="#000000" points="397.0328,-512.1738 403.0363,-503.444 392.8992,-506.5246 397.0328,-512.1738"/>
</g>
<!-- ammonium -->
<g id="node6" class="node">
<title>ammonium</title>
<ellipse fill="#ffffff" stroke="#ffffff" cx="425.0831" cy="-570.7276" rx="57.9275" ry="18"/>
<text text-anchor="middle" x="425.0831" y="-566.5276" font-family="Times,serif" font-size="14.00" fill="#000000">Ammonium</text>
</g>
<!-- ammonium&#45;&gt;nutrients -->
<g id="edge2" class="edge">
<title>ammonium&#45;&gt;nutrients</title>
<path fill="none" stroke="#000000" d="M425.0831,-552.6276C425.0831,-541.806 425.0831,-527.8228 425.0831,-515.5727"/>
<polygon fill="#000000" stroke="#000000" points="428.5832,-515.3766 425.0831,-505.3766 421.5832,-515.3766 428.5832,-515.3766"/>
</g>
<!-- phosphate -->
<g id="node7" class="node">
<title>phosphate</title>
<ellipse fill="#ffffff" stroke="#ffffff" cx="551.0831" cy="-570.7276" rx="50.9638" ry="18"/>
<text text-anchor="middle" x="551.0831" y="-566.5276" font-family="Times,serif" font-size="14.00" fill="#000000">Phosphate</text>
</g>
<!-- phosphate&#45;&gt;nutrients -->
<g id="edge3" class="edge">
<title>phosphate&#45;&gt;nutrients</title>
<path fill="none" stroke="#000000" d="M527.0869,-554.8414C507.3817,-541.796 479.2833,-523.194 457.5649,-508.8159"/>
<polygon fill="#000000" stroke="#000000" points="459.2604,-505.7408 448.99,-503.139 455.3962,-511.5777 459.2604,-505.7408"/>
</g>
<!-- model_growth -->
<g id="node9" class="node">
<title>model_growth</title>
<polygon fill="#669999" stroke="#000000" points="280.3975,-326.8669 181.7688,-326.8669 181.7688,-285.6631 280.3975,-285.6631 280.3975,-326.8669"/>
<text text-anchor="middle" x="231.0831" y="-310.465" font-family="Times,serif" font-size="14.00" fill="#000000">Seaweed</text>
<text text-anchor="middle" x="231.0831" y="-293.665" font-family="Times,serif" font-size="14.00" fill="#000000">Growth Model</text>
</g>
<!-- env_data&#45;&gt;model_growth -->
<g id="edge8" class="edge">
<title>env_data&#45;&gt;model_growth</title>
<path fill="none" stroke="#000000" d="M231.0831,-362.8101C231.0831,-354.522 231.0831,-345.4974 231.0831,-337.1414"/>
<polygon fill="#000000" stroke="#000000" points="234.5832,-337.0204 231.0831,-327.0204 227.5832,-337.0204 234.5832,-337.0204"/>
</g>
<!-- growth -->
<g id="node10" class="node">
<title>growth</title>
<polygon fill="#d49a6a" stroke="#d49a6a" points="307.5489,-215.4988 269.316,-249.4313 192.8502,-249.4313 154.6174,-215.4988 192.8502,-181.5662 269.316,-181.5662 307.5489,-215.4988"/>
<text text-anchor="middle" x="231.0831" y="-219.6988" font-family="Times,serif" font-size="14.00" fill="#000000">Seaweed</text>
<text text-anchor="middle" x="231.0831" y="-202.8988" font-family="Times,serif" font-size="14.00" fill="#000000">Growth Rates</text>
</g>
<!-- model_growth&#45;&gt;growth -->
<g id="edge9" class="edge">
<title>model_growth&#45;&gt;growth</title>
<path fill="none" stroke="#000000" d="M231.0831,-285.2133C231.0831,-277.6099 231.0831,-268.7128 231.0831,-259.8671"/>
<polygon fill="#000000" stroke="#000000" points="234.5832,-259.5873 231.0831,-249.5873 227.5832,-259.5874 234.5832,-259.5873"/>
</g>
<!-- upscaling_model -->
<g id="node11" class="node">
<title>upscaling_model</title>
<polygon fill="#669999" stroke="#000000" points="408.1674,-145.3344 339.9989,-145.3344 339.9989,-104.1306 408.1674,-104.1306 408.1674,-145.3344"/>
<text text-anchor="middle" x="374.0831" y="-128.9325" font-family="Times,serif" font-size="14.00" fill="#000000">Scale&#45;Up</text>
<text text-anchor="middle" x="374.0831" y="-112.1325" font-family="Times,serif" font-size="14.00" fill="#000000">Model</text>
</g>
<!-- growth&#45;&gt;upscaling_model -->
<g id="edge10" class="edge">
<title>growth&#45;&gt;upscaling_model</title>
<path fill="none" stroke="#000000" d="M275.9369,-187.0288C294.0975,-175.5017 314.9346,-162.2758 332.7244,-150.9841"/>
<polygon fill="#000000" stroke="#000000" points="334.6205,-153.9262 341.1877,-145.6122 330.8692,-148.0162 334.6205,-153.9262"/>
</g>
<!-- area_needed -->
<g id="node14" class="node">
<title>area_needed</title>
<polygon fill="#d49a6a" stroke="#d49a6a" points="372.5598,-33.9663 337.8215,-67.8988 268.3448,-67.8988 233.6064,-33.9663 268.3448,-.0337 337.8215,-.0337 372.5598,-33.9663"/>
<text text-anchor="middle" x="303.0831" y="-38.1663" font-family="Times,serif" font-size="14.00" fill="#000000">Global Area</text>
<text text-anchor="middle" x="303.0831" y="-21.3663" font-family="Times,serif" font-size="14.00" fill="#000000">Needed</text>
</g>
<!-- upscaling_model&#45;&gt;area_needed -->
<g id="edge13" class="edge">
<title>upscaling_model&#45;&gt;area_needed</title>
<path fill="none" stroke="#000000" d="M357.6158,-103.6808C351.151,-95.4162 343.4907,-85.6232 335.9859,-76.0291"/>
<polygon fill="#000000" stroke="#000000" points="338.6662,-73.7749 329.7482,-68.0548 333.1527,-78.0878 338.6662,-73.7749"/>
</g>
<!-- upscaling_speed -->
<g id="node15" class="node">
<title>upscaling_speed</title>
<polygon fill="#d49a6a" stroke="#d49a6a" points="501.7643,-33.9663 473.9237,-67.8988 418.2425,-67.8988 390.4019,-33.9663 418.2425,-.0337 473.9237,-.0337 501.7643,-33.9663"/>
<text text-anchor="middle" x="446.0831" y="-38.1663" font-family="Times,serif" font-size="14.00" fill="#000000">Scale&#45;Up</text>
<text text-anchor="middle" x="446.0831" y="-21.3663" font-family="Times,serif" font-size="14.00" fill="#000000">Speed</text>
</g>
<!-- upscaling_model&#45;&gt;upscaling_speed -->
<g id="edge14" class="edge">
<title>upscaling_model&#45;&gt;upscaling_speed</title>
<path fill="none" stroke="#000000" d="M390.7823,-103.6808C397.3382,-95.4162 405.1065,-85.6232 412.7169,-76.0291"/>
<polygon fill="#000000" stroke="#000000" points="415.5699,-78.0644 419.0425,-68.0548 410.0858,-73.7141 415.5699,-78.0644"/>
</g>
<!-- food_demands -->
<g id="node12" class="node">
<title>food_demands</title>
<ellipse fill="#55aa55" stroke="#55aa55" cx="374.0831" cy="-215.4988" rx="48.8991" ry="29.3315"/>
<text text-anchor="middle" x="374.0831" y="-219.6988" font-family="Times,serif" font-size="14.00" fill="#000000">Food</text>
<text text-anchor="middle" x="374.0831" y="-202.8988" font-family="Times,serif" font-size="14.00" fill="#000000">Demands</text>
</g>
<!-- food_demands&#45;&gt;upscaling_model -->
<g id="edge11" class="edge">
<title>food_demands&#45;&gt;upscaling_model</title>
<path fill="none" stroke="#000000" d="M374.0831,-186.0296C374.0831,-176.2979 374.0831,-165.4485 374.0831,-155.6142"/>
<polygon fill="#000000" stroke="#000000" points="377.5832,-155.4423 374.0831,-145.4424 370.5832,-155.4424 377.5832,-155.4423"/>
</g>
<!-- assumptions -->
<g id="node13" class="node">
<title>assumptions</title>
<ellipse fill="#55aa55" stroke="#55aa55" cx="504.0831" cy="-215.4988" rx="63.0237" ry="29.3315"/>
<text text-anchor="middle" x="504.0831" y="-219.6988" font-family="Times,serif" font-size="14.00" fill="#000000">Scale&#45;Up</text>
<text text-anchor="middle" x="504.0831" y="-202.8988" font-family="Times,serif" font-size="14.00" fill="#000000">Assumptions</text>
</g>
<!-- assumptions&#45;&gt;upscaling_model -->
<g id="edge12" class="edge">
<title>assumptions&#45;&gt;upscaling_model</title>
<path fill="none" stroke="#000000" d="M468.9033,-190.9361C451.4556,-178.7541 430.348,-164.0168 412.4812,-151.5421"/>
<polygon fill="#000000" stroke="#000000" points="414.2037,-148.4761 404.0008,-145.6211 410.1964,-154.2156 414.2037,-148.4761"/>
</g>
</g>
</svg>
